<mxfile host="app.diagrams.net" modified="2022-05-26T08:51:48.763Z" agent="5.0 (Windows NT 10.0; Win64; x64) AppleWebKit/537.36 (KHTML, like Gecko) Chrome/101.0.4951.64 Safari/537.36 Edg/101.0.1210.53" etag="K58cBaYwc5y52GQnruoa" version="18.1.1" type="github">
  <diagram id="C5RBs43oDa-KdzZeNtuy" name="Page-1">
    <mxGraphModel dx="1422" dy="905" grid="0" gridSize="10" guides="1" tooltips="1" connect="1" arrows="1" fold="1" page="1" pageScale="1" pageWidth="1200" pageHeight="1920" math="0" shadow="0">
      <root>
        <mxCell id="WIyWlLk6GJQsqaUBKTNV-0" />
        <mxCell id="WIyWlLk6GJQsqaUBKTNV-1" parent="WIyWlLk6GJQsqaUBKTNV-0" />
        <mxCell id="4FOTE_E3WUO1Tem4DDPL-7" value="" style="edgeStyle=orthogonalEdgeStyle;rounded=0;orthogonalLoop=1;jettySize=auto;html=1;fontSize=13;entryX=0.5;entryY=0;entryDx=0;entryDy=0;" parent="WIyWlLk6GJQsqaUBKTNV-1" source="4FOTE_E3WUO1Tem4DDPL-2" target="WBnSd9kaTV5CyxAwd8Dd-0" edge="1">
          <mxGeometry relative="1" as="geometry">
            <mxPoint x="265" y="160" as="targetPoint" />
          </mxGeometry>
        </mxCell>
        <mxCell id="4FOTE_E3WUO1Tem4DDPL-2" value="开始" style="rounded=1;whiteSpace=wrap;html=1;" parent="WIyWlLk6GJQsqaUBKTNV-1" vertex="1">
          <mxGeometry x="215" y="80" width="100" height="40" as="geometry" />
        </mxCell>
        <mxCell id="4FOTE_E3WUO1Tem4DDPL-14" value="" style="edgeStyle=orthogonalEdgeStyle;rounded=0;orthogonalLoop=1;jettySize=auto;html=1;fontSize=13;startArrow=none;" parent="WIyWlLk6GJQsqaUBKTNV-1" source="4FOTE_E3WUO1Tem4DDPL-23" target="4FOTE_E3WUO1Tem4DDPL-13" edge="1">
          <mxGeometry relative="1" as="geometry">
            <Array as="points">
              <mxPoint x="265" y="320" />
              <mxPoint x="265" y="320" />
            </Array>
          </mxGeometry>
        </mxCell>
        <mxCell id="4FOTE_E3WUO1Tem4DDPL-28" value="true" style="edgeLabel;html=1;align=center;verticalAlign=middle;resizable=0;points=[];fontSize=13;" parent="4FOTE_E3WUO1Tem4DDPL-14" vertex="1" connectable="0">
          <mxGeometry x="-0.0968" y="10" relative="1" as="geometry">
            <mxPoint x="5" y="-8" as="offset" />
          </mxGeometry>
        </mxCell>
        <mxCell id="4FOTE_E3WUO1Tem4DDPL-16" value="" style="edgeStyle=orthogonalEdgeStyle;rounded=0;orthogonalLoop=1;jettySize=auto;html=1;fontSize=13;" parent="WIyWlLk6GJQsqaUBKTNV-1" source="4FOTE_E3WUO1Tem4DDPL-13" target="4FOTE_E3WUO1Tem4DDPL-15" edge="1">
          <mxGeometry relative="1" as="geometry" />
        </mxCell>
        <mxCell id="4FOTE_E3WUO1Tem4DDPL-13" value="Dao层查询账号密码返回User对象" style="whiteSpace=wrap;html=1;rounded=0;" parent="WIyWlLk6GJQsqaUBKTNV-1" vertex="1">
          <mxGeometry x="204.99" y="340" width="120" height="40" as="geometry" />
        </mxCell>
        <mxCell id="4FOTE_E3WUO1Tem4DDPL-19" value="" style="edgeStyle=orthogonalEdgeStyle;rounded=0;orthogonalLoop=1;jettySize=auto;html=1;fontSize=13;" parent="WIyWlLk6GJQsqaUBKTNV-1" source="4FOTE_E3WUO1Tem4DDPL-15" target="4FOTE_E3WUO1Tem4DDPL-18" edge="1">
          <mxGeometry relative="1" as="geometry" />
        </mxCell>
        <mxCell id="4FOTE_E3WUO1Tem4DDPL-30" value="" style="edgeStyle=orthogonalEdgeStyle;rounded=0;orthogonalLoop=1;jettySize=auto;html=1;fontSize=13;startArrow=none;startFill=0;endArrow=classic;endFill=1;" parent="WIyWlLk6GJQsqaUBKTNV-1" source="4FOTE_E3WUO1Tem4DDPL-15" target="4FOTE_E3WUO1Tem4DDPL-29" edge="1">
          <mxGeometry relative="1" as="geometry" />
        </mxCell>
        <mxCell id="4FOTE_E3WUO1Tem4DDPL-15" value="User对象不为空" style="rhombus;whiteSpace=wrap;html=1;rounded=0;" parent="WIyWlLk6GJQsqaUBKTNV-1" vertex="1">
          <mxGeometry x="202.01000000000002" y="420.5" width="125.48" height="59" as="geometry" />
        </mxCell>
        <mxCell id="4FOTE_E3WUO1Tem4DDPL-18" value="登录成功，跳转到后台首页" style="whiteSpace=wrap;html=1;rounded=0;" parent="WIyWlLk6GJQsqaUBKTNV-1" vertex="1">
          <mxGeometry x="376" y="430" width="120" height="40" as="geometry" />
        </mxCell>
        <mxCell id="4FOTE_E3WUO1Tem4DDPL-20" value="true" style="text;html=1;align=center;verticalAlign=middle;resizable=0;points=[];autosize=1;strokeColor=none;fillColor=none;fontSize=13;" parent="WIyWlLk6GJQsqaUBKTNV-1" vertex="1">
          <mxGeometry x="330" y="430" width="40" height="20" as="geometry" />
        </mxCell>
        <mxCell id="4FOTE_E3WUO1Tem4DDPL-26" value="" style="edgeStyle=orthogonalEdgeStyle;rounded=0;orthogonalLoop=1;jettySize=auto;html=1;fontSize=13;" parent="WIyWlLk6GJQsqaUBKTNV-1" source="4FOTE_E3WUO1Tem4DDPL-23" target="4FOTE_E3WUO1Tem4DDPL-25" edge="1">
          <mxGeometry relative="1" as="geometry" />
        </mxCell>
        <mxCell id="4FOTE_E3WUO1Tem4DDPL-23" value="前端校验" style="rhombus;whiteSpace=wrap;html=1;rounded=0;fontSize=13;strokeWidth=1;" parent="WIyWlLk6GJQsqaUBKTNV-1" vertex="1">
          <mxGeometry x="205" y="240" width="119.5" height="60" as="geometry" />
        </mxCell>
        <mxCell id="4FOTE_E3WUO1Tem4DDPL-24" value="" style="edgeStyle=orthogonalEdgeStyle;rounded=0;orthogonalLoop=1;jettySize=auto;html=1;fontSize=13;endArrow=classic;startArrow=none;startFill=0;verticalAlign=top;endFill=1;exitX=0.5;exitY=1;exitDx=0;exitDy=0;" parent="WIyWlLk6GJQsqaUBKTNV-1" source="WBnSd9kaTV5CyxAwd8Dd-0" target="4FOTE_E3WUO1Tem4DDPL-23" edge="1">
          <mxGeometry relative="1" as="geometry">
            <mxPoint x="265" y="200" as="sourcePoint" />
            <mxPoint x="265" y="560" as="targetPoint" />
          </mxGeometry>
        </mxCell>
        <mxCell id="4FOTE_E3WUO1Tem4DDPL-25" value="报错提示" style="whiteSpace=wrap;html=1;fontSize=13;rounded=0;strokeWidth=1;" parent="WIyWlLk6GJQsqaUBKTNV-1" vertex="1">
          <mxGeometry x="376" y="250" width="120" height="40" as="geometry" />
        </mxCell>
        <mxCell id="4FOTE_E3WUO1Tem4DDPL-27" value="false" style="text;html=1;align=center;verticalAlign=middle;resizable=0;points=[];autosize=1;strokeColor=none;fillColor=none;fontSize=13;" parent="WIyWlLk6GJQsqaUBKTNV-1" vertex="1">
          <mxGeometry x="330" y="244" width="40" height="20" as="geometry" />
        </mxCell>
        <mxCell id="4FOTE_E3WUO1Tem4DDPL-32" style="edgeStyle=orthogonalEdgeStyle;rounded=0;orthogonalLoop=1;jettySize=auto;html=1;entryX=0;entryY=0.5;entryDx=0;entryDy=0;fontSize=13;startArrow=none;startFill=0;endArrow=classic;endFill=1;" parent="WIyWlLk6GJQsqaUBKTNV-1" source="4FOTE_E3WUO1Tem4DDPL-29" target="4FOTE_E3WUO1Tem4DDPL-2" edge="1">
          <mxGeometry relative="1" as="geometry">
            <Array as="points">
              <mxPoint x="140" y="540" />
              <mxPoint x="140" y="100" />
            </Array>
          </mxGeometry>
        </mxCell>
        <mxCell id="4FOTE_E3WUO1Tem4DDPL-29" value="登录失败，重定向到登录页面" style="whiteSpace=wrap;html=1;rounded=0;" parent="WIyWlLk6GJQsqaUBKTNV-1" vertex="1">
          <mxGeometry x="205" y="520" width="120" height="40" as="geometry" />
        </mxCell>
        <mxCell id="WBnSd9kaTV5CyxAwd8Dd-0" value="账号密码" style="shape=parallelogram;html=1;strokeWidth=1;perimeter=parallelogramPerimeter;whiteSpace=wrap;rounded=0;arcSize=12;size=0.23;" vertex="1" parent="WIyWlLk6GJQsqaUBKTNV-1">
          <mxGeometry x="215" y="160" width="100" height="40" as="geometry" />
        </mxCell>
      </root>
    </mxGraphModel>
  </diagram>
</mxfile>
